# xmcd
#
# Track frame offsets: 
#        150
#        20765
#        46067
#        64495
#        92212
#        114345
#        134037
#        154850
#        175722
#        205677
#
# Disc length: 3089 seconds
#
# Revision: 2
# Processed by: cddbd v1.5.2PL0 Copyright (c) Steve Scherf et al.
# Submitted via: ExactAudioCopy v0.95b3
#
DISCID=890c0f0a
DTITLE=Aleph - Black Out [32XB-254]
DYEAR=1988
DGENRE=Electronic
TTITLE0=Big Brother
TTITLE1=Fly To Me
TTITLE2=Check It Up
TTITLE3=Just For Love
TTITLE4=Fire On The Moon
TTITLE5=Black Out
TTITLE6=Fly To Me (Re-Edit - House Version)
TTITLE7=I'm In Danger
TTITLE8=Big Brother (Extended Version)
TTITLE9=I'm In Danger (Extended Verson)
EXTD=
EXTT0=
EXTT1=
EXTT2=
EXTT3=
EXTT4=
EXTT5=
EXTT6=
EXTT7=
EXTT8=
EXTT9=
PLAYORDER=
